<!DOCTYPE svg PUBLIC "-//W3C//DTD SVG 1.1//EN" "https://www.w3.org/Graphics/SVG/1.1/DTD/svg11.dtd">
<svg xmlns="http://www.w3.org/2000/svg" class="sc-ddcaxn cMKwJY graph" data-testid="graph" width="544" height="852"><g transform="translate(12,12)" class="new-look-graph"><g class="nodes"><g class="node-container" transform="translate(260,22)"><g><circle class="sc-csvncw fuXXPi shape" r="22"/><text class="sc-eFWqGp gqLiEZ label"><tspan xml:space="preserve" text-anchor="middle" alignment-baseline="central">Start</tspan></text></g></g><g class="node-container" transform="translate(260,103.5)"><g class="sc-fctJkW gQvryS node state Pass" data-testid="graph-Start Workflow" data-state-id="Start Workflow" data-state-type="Pass"><g class="new-look-state-node "><rect x="-120" y="-24.5" width="240" height="49" rx="3" ry="3"/><g class="handle" transform="translate(-120,-24.5)"><path d="M5,16 L5,34 M8,16 L8,34"/></g><g class="icon" transform="translate(-104,-24)"><rect fill="var(--color-background-container-header-g9rg0j, #fafafa)" x="0.0361026108" y="0.0181291967" width="48" height="48"/><line x1="47.5" y1="0.49122807" x2="47.5" y2="47.5" stroke="var(--color-text-home-header-secondary-g5rqe4, #d5dbdb)" stroke-linecap="square"/><line x1="0.5" y1="0.49122807" x2="0.5" y2="47.5" stroke="var(--color-text-home-header-secondary-g5rqe4, #d5dbdb)" stroke-linecap="square"/><use href="#icon-flow-pass"/></g><g class="text-lines" transform="translate(-48,-24.5)"><text transform="translate(0,17)" class="line1"><tspan xml:space="preserve" text-anchor="start">Pass state</tspan></text><text transform="translate(0,35.5)" class="line2 label"><tspan xml:space="preserve" text-anchor="start">Start Workflow</tspan></text></g></g></g></g><g class="node-container" transform="translate(260,187.5)"><g class="sc-fctJkW gQvryS node state Choice" data-testid="graph-Item Status" data-state-id="Item Status" data-state-type="Choice"><g class="new-look-state-node "><rect x="-120" y="-24.5" width="240" height="49" rx="3" ry="3"/><g class="handle" transform="translate(-120,-24.5)"><path d="M5,16 L5,34 M8,16 L8,34"/></g><g class="icon" transform="translate(-104,-24)"><rect fill="var(--color-background-container-header-g9rg0j, #fafafa)" x="0.0361026108" y="0.0181291967" width="48" height="48"/><line x1="47.5" y1="0.49122807" x2="47.5" y2="47.5" stroke="var(--color-text-home-header-secondary-g5rqe4, #d5dbdb)" stroke-linecap="square"/><line x1="0.5" y1="0.49122807" x2="0.5" y2="47.5" stroke="var(--color-text-home-header-secondary-g5rqe4, #d5dbdb)" stroke-linecap="square"/><use href="#icon-flow-choice"/></g><g class="text-lines" transform="translate(-48,-24.5)"><text transform="translate(0,17)" class="line1"><tspan xml:space="preserve" text-anchor="start">Choice state</tspan></text><text transform="translate(0,35.5)" class="line2 label"><tspan xml:space="preserve" text-anchor="start">Item Status</tspan></text></g></g></g></g><g class="node-container" transform="translate(120,288)"><g class="sc-fctJkW gQvryS node state Task" data-testid="graph-UpdateNewLambda" data-state-id="UpdateNewLambda" data-state-type="Task"><g class="new-look-state-node "><rect x="-120" y="-24.5" width="240" height="49" rx="3" ry="3"/><g class="handle" transform="translate(-120,-24.5)"><path d="M5,16 L5,34 M8,16 L8,34"/></g><g class="icon" transform="translate(-104,-24)"><rect fill="var(--color-background-container-header-g9rg0j, #fafafa)" x="0.0361026108" y="0.0181291967" width="48" height="48"/><line x1="47.5" y1="0.49122807" x2="47.5" y2="47.5" stroke="var(--color-text-home-header-secondary-g5rqe4, #d5dbdb)" stroke-linecap="square"/><line x1="0.5" y1="0.49122807" x2="0.5" y2="47.5" stroke="var(--color-text-home-header-secondary-g5rqe4, #d5dbdb)" stroke-linecap="square"/><use href="#icon-service-lam"/></g><g class="text-lines" transform="translate(-48,-24.5)"><text transform="translate(0,17)" class="line1"><tspan xml:space="preserve" text-anchor="start">Lambda: Invoke</tspan></text><text transform="translate(0,35.5)" class="line2 label"><tspan xml:space="preserve" text-anchor="start">UpdateNewLambda</tspan></text></g></g></g></g><g class="node-container" transform="translate(400,288)"><g class="sc-fctJkW gQvryS node state Task" data-testid="graph-UpdateRetryLambda" data-state-id="UpdateRetryLambda" data-state-type="Task"><g class="new-look-state-node "><rect x="-120" y="-24.5" width="240" height="49" rx="3" ry="3"/><g class="handle" transform="translate(-120,-24.5)"><path d="M5,16 L5,34 M8,16 L8,34"/></g><g class="icon" transform="translate(-104,-24)"><rect fill="var(--color-background-container-header-g9rg0j, #fafafa)" x="0.0361026108" y="0.0181291967" width="48" height="48"/><line x1="47.5" y1="0.49122807" x2="47.5" y2="47.5" stroke="var(--color-text-home-header-secondary-g5rqe4, #d5dbdb)" stroke-linecap="square"/><line x1="0.5" y1="0.49122807" x2="0.5" y2="47.5" stroke="var(--color-text-home-header-secondary-g5rqe4, #d5dbdb)" stroke-linecap="square"/><use href="#icon-service-lam"/></g><g class="text-lines" transform="translate(-48,-24.5)"><text transform="translate(0,17)" class="line1"><tspan xml:space="preserve" text-anchor="start">Lambda: Invoke</tspan></text><text transform="translate(0,35.5)" class="line2 label"><tspan xml:space="preserve" text-anchor="start">UpdateRetryLambda</tspan></text></g></g></g></g><g class="node-container" transform="translate(260,372)"><g class="sc-fctJkW gQvryS node state Wait" data-testid="graph-Wait 10 Seconds" data-state-id="Wait 10 Seconds" data-state-type="Wait"><g class="new-look-state-node "><rect x="-120" y="-24.5" width="240" height="49" rx="3" ry="3"/><g class="handle" transform="translate(-120,-24.5)"><path d="M5,16 L5,34 M8,16 L8,34"/></g><g class="icon" transform="translate(-104,-24)"><rect fill="var(--color-background-container-header-g9rg0j, #fafafa)" x="0.0361026108" y="0.0181291967" width="48" height="48"/><line x1="47.5" y1="0.49122807" x2="47.5" y2="47.5" stroke="var(--color-text-home-header-secondary-g5rqe4, #d5dbdb)" stroke-linecap="square"/><line x1="0.5" y1="0.49122807" x2="0.5" y2="47.5" stroke="var(--color-text-home-header-secondary-g5rqe4, #d5dbdb)" stroke-linecap="square"/><use href="#icon-flow-wait"/></g><g class="text-lines" transform="translate(-48,-24.5)"><text transform="translate(0,17)" class="line1"><tspan xml:space="preserve" text-anchor="start">Wait state</tspan></text><text transform="translate(0,35.5)" class="line2 label"><tspan xml:space="preserve" text-anchor="start">Wait 10 Seconds</tspan></text></g></g></g></g><g class="node-container" transform="translate(260,456)"><g class="sc-fctJkW gQvryS node state Task" data-testid="graph-Get Random Number" data-state-id="Get Random Number" data-state-type="Task"><g class="new-look-state-node "><rect x="-120" y="-24.5" width="240" height="49" rx="3" ry="3"/><g class="handle" transform="translate(-120,-24.5)"><path d="M5,16 L5,34 M8,16 L8,34"/></g><g class="icon" transform="translate(-104,-24)"><rect fill="var(--color-background-container-header-g9rg0j, #fafafa)" x="0.0361026108" y="0.0181291967" width="48" height="48"/><line x1="47.5" y1="0.49122807" x2="47.5" y2="47.5" stroke="var(--color-text-home-header-secondary-g5rqe4, #d5dbdb)" stroke-linecap="square"/><line x1="0.5" y1="0.49122807" x2="0.5" y2="47.5" stroke="var(--color-text-home-header-secondary-g5rqe4, #d5dbdb)" stroke-linecap="square"/><use href="#icon-service-lam"/></g><g class="text-lines" transform="translate(-48,-24.5)"><text transform="translate(0,17)" class="line1"><tspan xml:space="preserve" text-anchor="start">Lambda: Invoke</tspan></text><text transform="translate(0,35.5)" class="line2 label"><tspan xml:space="preserve" text-anchor="start">Get Random Number</tspan></text></g></g></g></g><g class="node-container" transform="translate(260,540)"><g class="sc-fctJkW gQvryS node state Choice" data-testid="graph-Check Number Value" data-state-id="Check Number Value" data-state-type="Choice"><g class="new-look-state-node "><rect x="-120" y="-24.5" width="240" height="49" rx="3" ry="3"/><g class="handle" transform="translate(-120,-24.5)"><path d="M5,16 L5,34 M8,16 L8,34"/></g><g class="icon" transform="translate(-104,-24)"><rect fill="var(--color-background-container-header-g9rg0j, #fafafa)" x="0.0361026108" y="0.0181291967" width="48" height="48"/><line x1="47.5" y1="0.49122807" x2="47.5" y2="47.5" stroke="var(--color-text-home-header-secondary-g5rqe4, #d5dbdb)" stroke-linecap="square"/><line x1="0.5" y1="0.49122807" x2="0.5" y2="47.5" stroke="var(--color-text-home-header-secondary-g5rqe4, #d5dbdb)" stroke-linecap="square"/><use href="#icon-flow-choice"/></g><g class="text-lines" transform="translate(-48,-24.5)"><text transform="translate(0,17)" class="line1"><tspan xml:space="preserve" text-anchor="start">Choice state</tspan></text><text transform="translate(0,35.5)" class="line2 label"><tspan xml:space="preserve" text-anchor="start">Check Number Value</tspan></text></g></g></g></g><g class="node-container" transform="translate(120,640.5)"><g class="sc-fctJkW gQvryS node state Task" data-testid="graph-UpdateWithSuccess" data-state-id="UpdateWithSuccess" data-state-type="Task"><g class="new-look-state-node "><rect x="-120" y="-24.5" width="240" height="49" rx="3" ry="3"/><g class="handle" transform="translate(-120,-24.5)"><path d="M5,16 L5,34 M8,16 L8,34"/></g><g class="icon" transform="translate(-104,-24)"><rect fill="var(--color-background-container-header-g9rg0j, #fafafa)" x="0.0361026108" y="0.0181291967" width="48" height="48"/><line x1="47.5" y1="0.49122807" x2="47.5" y2="47.5" stroke="var(--color-text-home-header-secondary-g5rqe4, #d5dbdb)" stroke-linecap="square"/><line x1="0.5" y1="0.49122807" x2="0.5" y2="47.5" stroke="var(--color-text-home-header-secondary-g5rqe4, #d5dbdb)" stroke-linecap="square"/><use href="#icon-service-lam"/></g><g class="text-lines" transform="translate(-48,-24.5)"><text transform="translate(0,17)" class="line1"><tspan xml:space="preserve" text-anchor="start">Lambda: Invoke</tspan></text><text transform="translate(0,35.5)" class="line2 label"><tspan xml:space="preserve" text-anchor="start">UpdateWithSuccess</tspan></text></g></g></g></g><g class="node-container" transform="translate(400,640.5)"><g class="sc-fctJkW gQvryS node state Task" data-testid="graph-UpdateWithFail" data-state-id="UpdateWithFail" data-state-type="Task"><g class="new-look-state-node "><rect x="-120" y="-24.5" width="240" height="49" rx="3" ry="3"/><g class="handle" transform="translate(-120,-24.5)"><path d="M5,16 L5,34 M8,16 L8,34"/></g><g class="icon" transform="translate(-104,-24)"><rect fill="var(--color-background-container-header-g9rg0j, #fafafa)" x="0.0361026108" y="0.0181291967" width="48" height="48"/><line x1="47.5" y1="0.49122807" x2="47.5" y2="47.5" stroke="var(--color-text-home-header-secondary-g5rqe4, #d5dbdb)" stroke-linecap="square"/><line x1="0.5" y1="0.49122807" x2="0.5" y2="47.5" stroke="var(--color-text-home-header-secondary-g5rqe4, #d5dbdb)" stroke-linecap="square"/><use href="#icon-service-lam"/></g><g class="text-lines" transform="translate(-48,-24.5)"><text transform="translate(0,17)" class="line1"><tspan xml:space="preserve" text-anchor="start">Lambda: Invoke</tspan></text><text transform="translate(0,35.5)" class="line2 label"><tspan xml:space="preserve" text-anchor="start">UpdateWithFail</tspan></text></g></g></g></g><g class="node-container" transform="translate(120,724.5)"><g class="sc-fctJkW gQvryS node state Pass" data-testid="graph-Success!" data-state-id="Success!" data-state-type="Pass"><g class="new-look-state-node "><rect x="-120" y="-24.5" width="240" height="49" rx="3" ry="3"/><g class="handle" transform="translate(-120,-24.5)"><path d="M5,16 L5,34 M8,16 L8,34"/></g><g class="icon" transform="translate(-104,-24)"><rect fill="var(--color-background-container-header-g9rg0j, #fafafa)" x="0.0361026108" y="0.0181291967" width="48" height="48"/><line x1="47.5" y1="0.49122807" x2="47.5" y2="47.5" stroke="var(--color-text-home-header-secondary-g5rqe4, #d5dbdb)" stroke-linecap="square"/><line x1="0.5" y1="0.49122807" x2="0.5" y2="47.5" stroke="var(--color-text-home-header-secondary-g5rqe4, #d5dbdb)" stroke-linecap="square"/><use href="#icon-flow-pass"/></g><g class="text-lines" transform="translate(-48,-24.5)"><text transform="translate(0,17)" class="line1"><tspan xml:space="preserve" text-anchor="start">Pass state</tspan></text><text transform="translate(0,35.5)" class="line2 label"><tspan xml:space="preserve" text-anchor="start">Success!</tspan></text></g></g></g></g><g class="node-container" transform="translate(260,806)"><g><circle class="sc-csvncw fuXXPi shape" r="22"/><text class="sc-eFWqGp gqLiEZ label"><tspan xml:space="preserve" text-anchor="middle" alignment-baseline="central">End</tspan></text></g></g><g class="node-container" transform="translate(400,724.5)"><g class="sc-fctJkW gQvryS node state Pass" data-testid="graph-Failed" data-state-id="Failed" data-state-type="Pass"><g class="new-look-state-node "><rect x="-120" y="-24.5" width="240" height="49" rx="3" ry="3"/><g class="handle" transform="translate(-120,-24.5)"><path d="M5,16 L5,34 M8,16 L8,34"/></g><g class="icon" transform="translate(-104,-24)"><rect fill="var(--color-background-container-header-g9rg0j, #fafafa)" x="0.0361026108" y="0.0181291967" width="48" height="48"/><line x1="47.5" y1="0.49122807" x2="47.5" y2="47.5" stroke="var(--color-text-home-header-secondary-g5rqe4, #d5dbdb)" stroke-linecap="square"/><line x1="0.5" y1="0.49122807" x2="0.5" y2="47.5" stroke="var(--color-text-home-header-secondary-g5rqe4, #d5dbdb)" stroke-linecap="square"/><use href="#icon-flow-pass"/></g><g class="text-lines" transform="translate(-48,-24.5)"><text transform="translate(0,17)" class="line1"><tspan xml:space="preserve" text-anchor="start">Pass state</tspan></text><text transform="translate(0,35.5)" class="line2 label"><tspan xml:space="preserve" text-anchor="start">Failed</tspan></text></g></g></g></g></g><g class="edges"><g class="sc-HzFiz iPKSWb edge"><path id="state-Start Workflow:state-Item Status:normal" d="M260,128L260,130.91666666666666C260,133.83333333333334,260,139.66666666666666,260,145.5C260,151.33333333333334,260,157.16666666666666,260,160.08333333333334L260,163" marker-end="url(#arrowhead)" fill="none"/></g><g class="sc-HzFiz iPKSWb edge"><path id="start:state-Start Workflow" d="M260,44L260,46.916666666666664C260,49.833333333333336,260,55.666666666666664,260,61.5C260,67.33333333333333,260,73.16666666666667,260,76.08333333333333L260,79" marker-end="url(#arrowhead)" fill="none"/></g><g class="sc-HzFiz iPKSWb edge"><path id="state-Item Status:state-UpdateNewLambda:choiceRule:0" d="M191.74129353233832,212L179.7844112769486,216.29166666666666C167.8275290215589,220.58333333333334,143.91376451077943,229.16666666666666,131.95688225538973,237.75C120,246.33333333333334,120,254.91666666666666,120,259.2083333333333L120,263.5" marker-end="url(#arrowhead)" fill="none"/><g data-testid="graph-Item Status-0" class="edge-label" transform="translate(131.95688225538973,237.75)"><rect x="-65.5" y="-8.25" width="131" height="16.5" class="sc-brCFrO iJPTuR"/><text class="sc-gITdmR cpzeut label"><tspan xml:space="preserve" text-anchor="middle" alignment-baseline="central">$.workflow_step == "NEW"</tspan><title>$.workflow_step == "NEW"</title></text></g></g><g class="sc-HzFiz iPKSWb edge"><path id="state-Item Status:state-UpdateRetryLambda:choiceRule:1" d="M328.2587064676617,212L340.21558872305144,216.29166666666666C352.17247097844114,220.58333333333334,376.0862354892206,229.16666666666666,388.0431177446103,237.75C400,246.33333333333334,400,254.91666666666666,400,259.2083333333333L400,263.5" marker-end="url(#arrowhead)" fill="none"/><g data-testid="graph-Item Status-1" class="edge-label" transform="translate(388.0431177446103,237.75)"><rect x="-70.5" y="-8.25" width="141" height="16.5" class="sc-brCFrO iJPTuR"/><text class="sc-gITdmR cpzeut label"><tspan xml:space="preserve" text-anchor="middle" alignment-baseline="central">$.workflow_step == "FAILED"</tspan><title>$.workflow_step == "FAILED"</title></text></g></g><g class="sc-HzFiz iPKSWb edge"><path id="state-UpdateNewLambda:state-Wait 10 Seconds:normal" d="M120,312.5L120,315.4166666666667C120,318.3333333333333,120,324.1666666666667,129.7222222222222,330C139.44444444444443,335.8333333333333,158.88888888888889,341.6666666666667,168.6111111111111,344.5833333333333L178.33333333333331,347.5" marker-end="url(#arrowhead)" fill="none"/></g><g class="sc-HzFiz iPKSWb edge"><path id="state-Wait 10 Seconds:state-Get Random Number:normal" d="M260,396.5L260,399.4166666666667C260,402.3333333333333,260,408.1666666666667,260,414C260,419.8333333333333,260,425.6666666666667,260,428.5833333333333L260,431.5" marker-end="url(#arrowhead)" fill="none"/></g><g class="sc-HzFiz iPKSWb edge"><path id="state-UpdateRetryLambda:state-Wait 10 Seconds:normal" d="M400,312.5L400,315.4166666666667C400,318.3333333333333,400,324.1666666666667,390.27777777777777,330C380.5555555555556,335.8333333333333,361.11111111111114,341.6666666666667,351.3888888888889,344.5833333333333L341.6666666666667,347.5" marker-end="url(#arrowhead)" fill="none"/></g><g class="sc-HzFiz iPKSWb edge"><path id="state-Get Random Number:state-Check Number Value:normal" d="M260,480.5L260,483.4166666666667C260,486.3333333333333,260,492.1666666666667,260,498C260,503.8333333333333,260,509.6666666666667,260,512.5833333333334L260,515.5" marker-end="url(#arrowhead)" fill="none"/></g><g class="sc-HzFiz iPKSWb edge"><path id="state-Check Number Value:state-UpdateWithSuccess:choiceRule:0" d="M191.74129353233832,564.5L179.7844112769486,568.7916666666666C167.8275290215589,573.0833333333334,143.91376451077943,581.6666666666666,131.95688225538973,590.25C120,598.8333333333334,120,607.4166666666666,120,611.7083333333334L120,616" marker-end="url(#arrowhead)" fill="none"/><g data-testid="graph-Check Number Value-0" class="edge-label" transform="translate(131.95688225538973,590.25)"><rect x="-98.5" y="-8.25" width="197" height="16.5" class="sc-brCFrO iJPTuR"/><text class="sc-gITdmR cpzeut label"><tspan xml:space="preserve" text-anchor="middle" alignment-baseline="central">$.random_number.number_selected &lt;= 7</tspan><title>$.random_number.number_selected &lt;= 7</title></text></g></g><g class="sc-HzFiz iPKSWb edge"><path id="state-Check Number Value:state-UpdateWithFail:choiceRule:1" d="M328.2587064676617,564.5L340.21558872305144,568.7916666666666C352.17247097844114,573.0833333333334,376.0862354892206,581.6666666666666,388.0431177446103,590.25C400,598.8333333333334,400,607.4166666666666,400,611.7083333333334L400,616" marker-end="url(#arrowhead)" fill="none"/><g data-testid="graph-Check Number Value-1" class="edge-label" transform="translate(388.0431177446103,590.25)"><rect x="-98.5" y="-8.25" width="197" height="16.5" class="sc-brCFrO iJPTuR"/><text class="sc-gITdmR cpzeut label"><tspan xml:space="preserve" text-anchor="middle" alignment-baseline="central">$.random_number.number_selected &gt;= 8</tspan><title>$.random_number.number_selected &gt;= 8</title></text></g></g><g class="sc-HzFiz iPKSWb edge"><path id="state-UpdateWithSuccess:state-Success!:normal" d="M120,665L120,667.9166666666666C120,670.8333333333334,120,676.6666666666666,120,682.5C120,688.3333333333334,120,694.1666666666666,120,697.0833333333334L120,700" marker-end="url(#arrowhead)" fill="none"/></g><g class="sc-HzFiz iPKSWb edge"><path id="state-Success!:end:normal" d="M120,749L120,751.9166666666666C120,754.8333333333334,120,760.6666666666666,139.8044356314808,769.1710133865012C159.60887126296163,777.6753601063356,199.21774252592323,788.8507202126711,219.02217815740403,794.438400265839L238.82661378888483,800.0260803190068" marker-end="url(#arrowhead)" fill="none"/></g><g class="sc-HzFiz iPKSWb edge"><path id="state-UpdateWithFail:state-Failed:normal" d="M400,665L400,667.9166666666666C400,670.8333333333334,400,676.6666666666666,400,682.5C400,688.3333333333334,400,694.1666666666666,400,697.0833333333334L400,700" marker-end="url(#arrowhead)" fill="none"/></g><g class="sc-HzFiz iPKSWb edge"><path id="state-Failed:end:normal" d="M400,749L400,751.9166666666666C400,754.8333333333334,400,760.6666666666666,380.1955643685192,769.1710133865012C360.39112873703834,777.6753601063356,320.78225747407674,788.8507202126711,300.9778218425959,794.438400265839L281.17338621111514,800.0260803190068" marker-end="url(#arrowhead)" fill="none"/></g></g><defs><marker id="arrowhead" markerWidth="8" markerHeight="6" refX="7" refY="3" orient="auto" class="sc-bWXABl gtsMWf"><polygon points="0 0, 8 3, 0 6"/></marker><marker id="highlighted-arrowhead" markerWidth="6" markerHeight="4" refX="5" refY="2" orient="auto" class="sc-bWXABl gtsMWf"><polygon points="0 0, 6 2, 0 4"/></marker><marker id="error-arrowhead" markerWidth="6" markerHeight="4" refX="5" refY="2" orient="auto" class="sc-bWXABl gtsMWf"><polygon points="0 0, 6 2, 0 4"/></marker><marker id="large-arrowhead" markerWidth="10" markerHeight="8" refX="9" refY="4" orient="auto" class="sc-bWXABl gtsMWf"><polygon points="0 0, 10 4, 0 8"/></marker><marker id="large-highlighted-arrowhead" markerWidth="5.5" markerHeight="4" refX="4.5" refY="2" orient="auto" class="sc-bWXABl gtsMWf"><polygon points="0 0, 5.5 2, 0 4"/></marker><marker id="large-error-arrowhead" markerWidth="10" markerHeight="8" refX="9" refY="4" orient="auto" class="sc-bWXABl gtsMWf"><polygon points="0 0, 10 4, 0 8"/></marker><linearGradient x1="0%" y1="100%" x2="100%" y2="0%" id="gradient-orange"><stop stop-color="#C8511B" offset="0%"/><stop stop-color="#FF9900" offset="100%"/></linearGradient><linearGradient x1="0%" y1="100%" x2="100%" y2="0%" id="gradient-turquoise"><stop stop-color="#055F4E" offset="0%"/><stop stop-color="#56C0A7" offset="100%"/></linearGradient><linearGradient x1="0%" y1="100%" x2="100%" y2="0%" id="gradient-blue"><stop stop-color="#2E27AD" offset="0%"/><stop stop-color="#527FFF" offset="100%"/></linearGradient><linearGradient x1="0%" y1="100%" x2="100%" y2="0%" id="gradient-pink"><stop stop-color="#B0084D" offset="0%"/><stop stop-color="#FF4F8B" offset="100%"/></linearGradient><linearGradient x1="0%" y1="100%" x2="100%" y2="0%" id="gradient-red"><stop stop-color="#BD0816" offset="0%"/><stop stop-color="#FF5252" offset="100%"/></linearGradient><linearGradient x1="0%" y1="100%" x2="100%" y2="0%" id="gradient-green"><stop stop-color="#1B660F" offset="0%"/><stop stop-color="#6CAE3E" offset="100%"/></linearGradient><linearGradient x1="0%" y1="100%" x2="100%" y2="0%" id="gradient-purple"><stop stop-color="#4D27A8" offset="0%"/><stop stop-color="#A166FF" offset="100%"/></linearGradient><linearGradient x1="0%" y1="100%" x2="100%" y2="0%" id="gradient-grey"><stop stop-color="#DCDCDC" offset="0%"/><stop stop-color="#F6F5F7" offset="100%"/></linearGradient>,<linearGradient x1="0%" y1="100%" x2="100%" y2="0%" id="gradient-ag"><stop stop-color="#BC1356" offset="0%"/><stop stop-color="#F34482" offset="100%"/></linearGradient><linearGradient x1="0%" y1="100%" x2="100%" y2="0%" id="gradient-athena"><stop stop-color="#5930B5" offset="0%"/><stop stop-color="#945DF2" offset="100%"/></linearGradient><linearGradient x1="0%" y1="100%" x2="100%" y2="0%" id="gradient-emr"><stop stop-color="#5930B5" offset="0%"/><stop stop-color="#945DF2" offset="100%"/></linearGradient><linearGradient x1="0%" y1="100%" x2="100%" y2="0%" id="gradient-glue"><stop stop-color="#5930B5" offset="0%"/><stop stop-color="#945DF2" offset="100%"/></linearGradient><linearGradient x1="0%" y1="100%" x2="100%" y2="0%" id="gradient-sns"><stop stop-color="#BC1356" offset="0%"/><stop stop-color="#F34482" offset="100%"/></linearGradient><linearGradient x1="0%" y1="100%" x2="100%" y2="0%" id="gradient-states"><stop stop-color="#BC1356" offset="0%"/><stop stop-color="#F34482" offset="100%"/></linearGradient><linearGradient x1="0%" y1="100%" x2="100%" y2="0%" id="gradient-generic"><stop stop-color="#ccc" offset="0%"/><stop stop-color="#ddd" offset="100%"/></linearGradient><g stroke="none" stroke-width="1" fill="none" fill-rule="evenodd" id="icon-flow-pass"><g transform="translate(10.500000, 8.750000)" fill="#0073BB" fill-rule="nonzero"><path d="M13.8217363,31.2803301 L13.7368454,31.3532508 L13.7368454,31.3532508 L13.6534426,31.407053 L13.6534426,31.407053 L13.6052878,31.4313839 L13.6052878,31.4313839 L13.5081671,31.4681458 L13.5081671,31.4681458 L13.4513711,31.4828395 L13.4513711,31.4828395 L13.3846755,31.4942127 L13.3846755,31.4942127 L13.3412428,31.498357 L13.3412428,31.498357 L13.241495,31.498357 L13.241495,31.498357 L13.1802045,31.4917588 L13.1802045,31.4917588 L13.1314644,31.4828361 L13.1314644,31.4828361 L13.0652921,31.4652652 L12.9776235,31.4314294 L12.9776235,31.4314294 L12.9293782,31.4070608 L12.9293782,31.4070608 L12.8294824,31.3409596 L12.7610762,31.2803301 L12.7610762,31.2803301 L8.26107616,26.7803301 C7.96818295,26.4874369 7.96818295,26.0125631 8.26107616,25.7196699 C8.52734273,25.4534034 8.94400641,25.4291973 9.2376179,25.6470518 L9.32173634,25.7196699 L12.5814063,28.979 L12.581,19.7495522 L3.5,19.75 C1.6314366,19.75 0.104873551,18.2857224 0.00517886273,16.4420352 L0,16.25 L0,12.25 C0,10.3814366 1.4642776,8.85487355 3.3079648,8.75517886 L3.5,8.75 L11.686,8.74955216 L11.686,10.2495522 L3.5,10.25 C2.4456382,10.25 1.58183488,11.0658778 1.50548574,12.1007377 L1.5,12.25 L1.5,16.25 C1.5,17.3043618 2.31587779,18.1681651 3.35073766,18.2445143 L3.5,18.25 L22.5,18.25 C23.5543618,18.25 24.4181651,17.4341222 24.4945143,16.3992623 L24.5,16.25 L24.5,12.25 C24.5,11.1956382 23.6841222,10.3318349 22.6492623,10.2554857 L22.5,10.25 L15.686,10.2495522 L15.686,8.74955216 L22.5,8.75 C24.3685634,8.75 25.8951264,10.2142776 25.9948211,12.0579648 L26,12.25 L26,16.25 C26,18.1185634 24.5357224,19.6451264 22.6920352,19.7448211 L22.5,19.75 L14.081,19.7495522 L14.0814063,28.899 L17.2610762,25.7196699 L17.3451946,25.6470518 C17.6388061,25.4291973 18.0554698,25.4534034 18.3217363,25.7196699 C18.5880029,25.9859365 18.6122089,26.4026002 18.3943545,26.6962117 L18.3217363,26.7803301 L13.8217363,31.2803301 Z"/><polygon points="14.0818291 0 14.0818291 14.5 12.5818291 14.5 12.5818291 0"/></g></g><g stroke="none" stroke-width="1" fill="none" fill-rule="evenodd" id="icon-flow-wait"><path d="M26.75,8.85825893 L26.75,10.3582589 L25,10.3582589 L25.0010332,13.2887186 C27.2395643,13.4625704 29.3159269,14.2145278 31.0809903,15.3954598 L32.3188424,13.6912711 L34.7458934,15.4546269 L33.3682881,17.3513419 C35.4674483,19.6240431 36.75,22.6622436 36.75,26 C36.75,33.0416306 31.0416306,38.75 24,38.75 C16.9583694,38.75 11.25,33.0416306 11.25,26 C11.25,22.7657627 12.4542298,19.8127884 14.4387685,17.5649977 L12.9047966,15.4546269 L15.3318476,13.6912711 L16.6858812,15.555197 C18.2387522,14.4657629 20.0456704,13.7138336 22.0001068,13.4059384 L22,10.3582589 L20.25,10.3582589 L20.25,8.85825893 L26.75,8.85825893 Z M24,14.75 C17.7867966,14.75 12.75,19.7867966 12.75,26 C12.75,32.2132034 17.7867966,37.25 24,37.25 C30.2132034,37.25 35.25,32.2132034 35.25,26 C35.25,19.7867966 30.2132034,14.75 24,14.75 Z M24.4666648,19.3452148 L24.466,26.499 L30.9387207,26.4993034 L30.9387207,27.9993034 L23.7166648,27.9993034 C23.336969,27.9993034 23.0231738,27.7171495 22.9735114,27.3510739 L22.9666648,27.2493034 L22.9666648,19.3452148 L24.4666648,19.3452148 Z" fill="#0073BB" fill-rule="nonzero"/></g><g stroke="none" stroke-width="1" fill="none" fill-rule="evenodd" id="icon-flow-choice"><g transform="translate(9.252020, 8.729185)" fill="#0073BB" fill-rule="nonzero"><path d="M13.7176503,0.219669914 C13.9839168,-0.0465966484 14.4005805,-0.0708026996 14.694192,0.147051761 L14.7783104,0.219669914 L26.7991257,12.2404852 C27.0653923,12.5067518 27.0895983,12.9234154 26.8717439,13.2170269 L26.7991257,13.3011454 L19.848,20.251 L27.063,27.58 L27.0635443,24.4725437 C27.0635443,24.0583302 27.3993308,23.7225437 27.8135443,23.7225437 C28.1901021,23.7225437 28.5018441,24.0000532 28.5554124,24.3617142 L28.5635443,24.4725437 L28.5635443,29.4222912 C28.5635443,29.4735748 28.5583971,29.5236562 28.5485912,29.5720469 L28.5290567,29.6477745 L28.4912259,29.7440224 L28.4674556,29.7898473 L28.4399848,29.8348433 L28.3922808,29.8993609 L28.3266417,29.9693147 L28.2903734,30.0012261 L28.2103598,30.0588356 L28.1372883,30.0990133 L28.0408973,30.1372113 L27.9243738,30.1641593 C27.8841362,30.1698129 27.8491297,30.1722912 27.8135443,30.1722912 L22.8637969,30.1722912 C22.4495833,30.1722912 22.1137969,29.8365048 22.1137969,29.4222912 C22.1137969,29.0457334 22.3913063,28.7339914 22.7529674,28.6804231 L22.8637969,28.6722912 L26.032,28.672 L18.787,21.312 L14.7783104,25.3219606 C14.5120439,25.5882272 14.0953802,25.6124333 13.8017687,25.3945788 L13.7176503,25.3219606 L9.63,21.234 L2.386,28.671 L5.69974747,28.6722912 L5.81057697,28.6804231 C6.17223802,28.7339914 6.44974747,29.0457334 6.44974747,29.4222912 C6.44974747,29.801987 6.16759359,30.1157822 5.80151803,30.1654446 L5.69974747,30.1722912 L0.75,30.1722912 L0.645175107,30.1650238 L0.571316134,30.150876 L0.491748953,30.1266437 L0.399838514,30.0857012 L0.323957521,30.0396165 L0.243169757,29.975129 L0.170912131,29.8989347 L0.109961584,29.8134582 L0.0656949991,29.7297074 L0.0297396696,29.6320944 L0.0076057584,29.5294944 L6.67910172e-13,29.4222912 L6.67910172e-13,24.4725437 L0.00813192572,24.3617142 C0.0617002376,24.0000532 0.373442216,23.7225437 0.75,23.7225437 C1.12969577,23.7225437 1.44349096,24.0046976 1.49315338,24.3707732 L1.5,24.4725437 L1.499,27.433 L8.569,20.174 L1.69683498,13.3011454 C1.43056842,13.0348788 1.40636237,12.6182151 1.62421683,12.3246036 L1.69683498,12.2404852 L13.7176503,0.219669914 Z M14.3527697,23.728356 L25.2081355,12.7708153 L14.2479803,1.81066017 L3.28782524,12.7708153 L9.616,19.099 L14.3527697,23.728356 Z"/><path d="M15.2319803,14.0468153 L15.2319803,13.2668153 C16.0033137,12.8508153 16.5579803,12.4218153 16.8959803,11.9798153 C17.2339803,11.5378153 17.4029803,11.0178153 17.4029803,10.4198153 C17.4029803,9.65714861 17.151647,9.06131528 16.6489803,8.63231528 C16.1463137,8.20331528 15.448647,7.98881528 14.5559803,7.98881528 C13.6979803,7.98881528 12.874647,8.19248195 12.0859803,8.59981528 L12.0859803,8.59981528 L12.0859803,10.3288153 C12.8313137,9.98214861 13.4943137,9.80881528 14.0749803,9.80881528 C14.395647,9.80881528 14.6404803,9.87814861 14.8094803,10.0168153 C14.9784803,10.1554819 15.0629803,10.3591486 15.0629803,10.6278153 C15.0629803,10.9138153 14.9763137,11.1651486 14.8029803,11.3818153 C14.629647,11.5984819 14.343647,11.8151486 13.9449803,12.0318153 L13.9449803,12.0318153 L13.1909803,12.4348153 L13.3339803,14.0468153 L15.2319803,14.0468153 Z M14.3089803,17.4398153 C14.7249803,17.4398153 15.0608137,17.3141486 15.3164803,17.0628153 C15.572147,16.8114819 15.6999803,16.4821486 15.6999803,16.0748153 C15.6999803,15.6674819 15.572147,15.3381486 15.3164803,15.0868153 C15.0608137,14.8354819 14.7249803,14.7098153 14.3089803,14.7098153 C13.8929803,14.7098153 13.557147,14.8354819 13.3014803,15.0868153 C13.0458137,15.3381486 12.9179803,15.6674819 12.9179803,16.0748153 C12.9179803,16.4821486 13.0458137,16.8114819 13.3014803,17.0628153 C13.557147,17.3141486 13.8929803,17.4398153 14.3089803,17.4398153 Z"/></g></g><g stroke="none" stroke-width="1" fill="none" fill-rule="evenodd" id="icon-service-lam"><polygon fill="url(#gradient-orange)" fill-rule="nonzero" points="0 0 48 0 48 48 0 48"/><g transform="translate(11, 10)" fill="#FFFFFF"><path d="M26.5889213,27.8937088 L19.6925948,27.8937088 C19.4772752,27.8931074 19.2813916,27.7706914 19.1888047,27.578869 L9.43766764,7.45673404 L5.31218659,7.45673404 C5.00303594,7.45673404 4.75241983,7.20943823 4.75241983,6.90438337 L4.75241983,0.828526005 C4.75241983,0.523471153 5.00303594,0.276175335 5.31218659,0.276175335 L13.9325948,0.276175335 C14.1479143,0.276776788 14.3437979,0.399192787 14.4363848,0.591015217 L24.1427405,20.7131501 L26.5889213,20.7131501 C26.8980719,20.7131501 27.148688,20.9604459 27.148688,21.2655008 L27.148688,27.3413582 C27.148688,27.646413 26.8980719,27.8937088 26.5889213,27.8937088 Z M20.0452478,26.7890075 L26.0291545,26.7890075 L26.0291545,21.8178515 L23.7900875,21.8178515 C23.5747679,21.81725 23.3788843,21.694834 23.2862974,21.5030116 L13.5799417,1.38087667 L5.87755102,1.38087667 L5.87755102,6.3520327 L9.79591837,6.3520327 C10.0112379,6.35263416 10.2071215,6.47505016 10.2997085,6.66687259 L20.0452478,26.7890075 Z"/><path d="M8.10542274,27.8937099 L0.82845481,27.8937099 C0.635054571,27.8940907 0.455155006,27.7959347 0.352653061,27.634104 C0.243858391,27.4681848 0.233185428,27.2575536 0.324664723,27.0817533 L7.93749271,11.3894708 C8.03007964,11.1976484 8.22596323,11.0752324 8.4412828,11.0746298 L8.4412828,11.0746298 C8.65533487,11.0742082 8.85089022,11.1942751 8.94507289,11.3839473 L12.5891545,18.7799228 C12.6634688,18.931712 12.6634688,19.1086786 12.5891545,19.2604679 L8.6148105,27.5457279 C8.53147526,27.7523199 8.33072312,27.8894609 8.10542274,27.8937099 L8.10542274,27.8937099 Z M1.72408163,26.7890075 L7.75276968,26.7890075 L11.4640233,19.0560981 L8.44688047,12.8973881 L1.72408163,26.7890075 Z"/></g></g></defs></g><style data-styled="true" data-styled-version="5.3.5">.gQvryS{cursor:pointer;}/*!sc*/
data-styled.g86[id="sc-fctJkW"]{content:"gQvryS,"}/*!sc*/
.iPKSWb{stroke:#555;background-color:#555;stroke-width:1px;}/*!sc*/
data-styled.g87[id="sc-HzFiz"]{content:"iPKSWb,"}/*!sc*/
.gtsMWf{fill:var(--color-text-form-secondary-1c3szk,#687078);}/*!sc*/
data-styled.g89[id="sc-bWXABl"]{content:"gtsMWf,"}/*!sc*/
.gqLiEZ{font-weight:400;font-size:12px;line-height:16px;font-family:Amazon Ember,Arial,Roboto,Arial,sans-serif;text-shadow:none;fill:var(--color-text-body-default-7m2b3r,#16191f);}/*!sc*/
data-styled.g90[id="sc-eFWqGp"]{content:"gqLiEZ,"}/*!sc*/
.fuXXPi{fill:#fff9cc;stroke:var(--color-text-form-secondary-1c3szk,#687078);stroke-width:0.6px;}/*!sc*/
data-styled.g91[id="sc-csvncw"]{content:"fuXXPi,"}/*!sc*/
.iJPTuR{stroke-width:0;stroke:none;fill:#f2f3f3;}/*!sc*/
data-styled.g93[id="sc-brCFrO"]{content:"iJPTuR,"}/*!sc*/
.cpzeut{font-size:10px;line-height:12.5;stroke:none;}/*!sc*/
data-styled.g94[id="sc-gITdmR"]{content:"cpzeut,"}/*!sc*/
</style><style>
.new-look-state-node &gt; rect:first-of-type {
  stroke: #687078;
  stroke-width: 1px;
  fill: #FFFFFF;
}

.new-look-state-node .error-icon circle {
 stroke-linejoin: round;
}

.new-look-state-node .error-icon circle, .new-look-state-node .error-icon path {
 stroke: var(--color-border-status-error-fybu9w, #d13212);
 fill: none;
 stroke-width: 2px;
}

.new-look-state-node.has-errors &gt; rect:first-of-type {
 stroke: var(--color-border-status-error-fybu9w, #d13212);
 fill: var(--color-background-status-error-h1a0iq, #fdf3f1);
}

.new-look-state-node .handle path {
  stroke: var(--color-border-dropdown-item-hover-d32f3f, #879596);
  stroke-width: 1px;
  fill: none;
}

.new-look-state-node {
  font-weight: 400;
  font-family: Amazon Ember, Arial, Roboto, Arial, sans-serif;
  text-shadow: none;
}

.new-look-state-node .line1 {
  fill: #687078;
  font-size: 12px;
}

.selected.node &gt; .new-look-state-node &gt; rect,
.selected.node &gt; .new-look-state-node &gt; .new-look-state-node &gt; rect,
.selected.node &gt; .new-look-state-node &gt; .bounding-box &gt; .new-look-state-node-sub &gt; rect
 {
  stroke: var(--color-border-status-info-0iedcr, #0073bb);
  fill: var(--color-background-status-info-yq3r41, #f1faff);
  stroke-width: 1px;
}

.new-look-state-node-sub .item-source.not-specified {
  height: 15px;
  color: #687078;
  font-family: "Amazon Ember";
  font-size: 12px;
  letter-spacing: 0;
  line-height: 16px;
  font-weight: 400;
}
.new-look-state-node-sub .item-source .item-source_name{
  font-weight: 600;
}
.new-look-state-node-sub .item-source.not-specified .item-source_name{
  font-weight: 400;
}

.new-look-state-node-sub .item-source.not-specified {
  font-style: italic;
}



.new-look-state-node-sub .item-source
.selected.node &gt; .new-look-state-node.has-errors &gt; rect,
.selected.node &gt; .new-look-state-node.has-errors &gt; .new-look-state-node &gt; rect,
{
 stroke: var(--color-border-status-error-fybu9w, #d13212);
 fill: #fde0da;
}

.new-look-graph .drag-source {
  opacity: 0.2;
}

.new-look-graph .edge, .new-look-graph path.starting-connection {
  stroke-width: 1px;
  stroke: var(--color-text-form-secondary-1c3szk, #687078);
  marker-end: url(#large-arrowhead);
}

.new-look-graph .edge-label {
  cursor: pointer;
}

.new-look-graph .edge-label rect {
  stroke-width: 1px;
  stroke: var(--color-border-control-default-jt0hca, #aab7b8);
  fill: var(--color-background-container-header-g9rg0j, #fafafa);
}

.new-look-graph .edge-label.selected rect {
  stroke: var(--color-border-status-info-0iedcr, #0073bb);
  fill: var(--color-background-status-info-yq3r41, #f1faff);
  stroke-width: 0.6px;
}



.new-look-graph .edge-label .label {
  fill: var(--color-text-form-secondary-1c3szk, #687078);
  font-family: Amazon Ember, Arial, Roboto, Arial, sans-serif;
}

/* centering the shape text */
@-moz-document url-prefix() {
  .new-look-graph .shape + text,
  .new-look-graph .edge-label text {
    transform: translateY(3.5px);
  }
}

.new-look-graph .edge path {
  marker-end: url(#large-arrowhead) !important;
}

.new-look-graph .edge.selected path{
  stroke: var(--color-border-status-info-0iedcr, #0073bb);
  stroke-width: 1.1px;
}

.new-look-graph .edge.dragging-over path, .new-look-graph  g.dragging-over .starting-connection {
  stroke: #5C86FF;
  stroke-width: 2px;
}

.new-look-graph .edge.dragging-over path, .new-look-graph .dragging-over path.starting-connection {
  marker-end: url(#large-highlighted-arrowhead) !important;
}

.new-look-graph .edge.dragging-over .edge-label text {
  fill: #5C86FF;
}

#large-highlighted-arrowhead {
  fill: #5C86FF;
}

#large-highlighted-arrowhead path {
  stroke: none;
}

.new-look-graph .edge.drop-not-supported path, g.drop-not-supported .starting-connection {
  stroke: red;
}

.new-look-graph .edge.drop-not-supported .edge-label text {
  fill: red;
}

.new-look-graph .edge.drop-not-supported path {
  marker-end: url(#large-error-arrowhead) !important;
}

#large-error-arrowhead {
  fill: red;
}


.node.Placeholder.dragging-over rect {
  stroke: var(--color-border-status-info-0iedcr, #0073bb);
  fill: var(--color-background-status-info-yq3r41, #f1faff);
  stroke-width: 2px;
}

.node.Placeholder.dragging-over .label {
  fill: var(--color-text-status-info-09r23g, #0073bb);
}

g.Placeholder rect {
  stroke-dasharray: 5 4;
  stroke: var(--color-border-dropdown-item-hover-d32f3f, #879596);
  fill: var(--color-background-control-default-8xmy94, #ffffff);
  stroke-width: 1px;
}

g.Placeholder .label {
  font-style: italic;
  fill: var(--color-text-input-placeholder-rtvjp5, #687078);
}

.node.Placeholder.drop-not-supported rect {
  stroke: red;
}

.node.Placeholder.drop-not-supported .label {
  fill: red;
}
</style><style>.line2 { font-size: 14px }</style></svg>